<svg width="19" height="22" viewBox="0 0 19 22" fill="none" xmlns="http://www.w3.org/2000/svg">
<path fill-rule="evenodd" clip-rule="evenodd" d="M7.32423 19.106C7.84223 19.683 8.50723 20 9.19723 20H9.19823C9.89123 20 10.5592 19.683 11.0782 19.105C11.3562 18.798 11.8302 18.773 12.1372 19.05C12.4452 19.327 12.4702 19.802 12.1932 20.109C11.3852 21.006 10.3222 21.5 9.19823 21.5H9.19623C8.07523 21.499 7.01423 21.005 6.20923 20.108C5.93223 19.801 5.95723 19.326 6.26523 19.05C6.57323 18.772 7.04723 18.797 7.32423 19.106ZM9.24703 0C13.692 0 16.678 3.462 16.678 6.695C16.678 8.358 17.101 9.063 17.55 9.811C17.994 10.549 18.497 11.387 18.497 12.971C18.148 17.018 13.923 17.348 9.24703 17.348C4.57103 17.348 0.345027 17.018 1.32363e-05 13.035C-0.00297341 11.387 0.500027 10.549 0.944027 9.811L1.10077 9.54716C1.4867 8.88386 1.81603 8.16235 1.81603 6.695C1.81603 3.462 4.80203 0 9.24703 0ZM9.24703 1.5C5.75203 1.5 3.31603 4.238 3.31603 6.695C3.31603 8.774 2.73903 9.735 2.22903 10.583C1.82003 11.264 1.49703 11.802 1.49703 12.971C1.66403 14.857 2.90903 15.848 9.24703 15.848C15.55 15.848 16.834 14.813 17 12.906C16.997 11.802 16.674 11.264 16.265 10.583C15.755 9.735 15.178 8.774 15.178 6.695C15.178 4.238 12.742 1.5 9.24703 1.5Z" fill="black"/>
</svg>
