<svg width="16" height="16" viewBox="0 0 16 16" fill="none" xmlns="http://www.w3.org/2000/svg">
<path fill-rule="evenodd" clip-rule="evenodd" d="M7.11906 0.0275441C7.42956 0.0275441 7.68156 0.279544 7.68156 0.590044C7.68156 0.900544 7.42956 1.15254 7.11906 1.15254H4.31481C2.37681 1.15254 1.12506 2.48004 1.12506 4.53429V10.7698C1.12506 12.824 2.37681 14.1515 4.31481 14.1515H10.9328C12.8708 14.1515 14.1233 12.824 14.1233 10.7698V7.74879C14.1233 7.43829 14.3753 7.18629 14.6858 7.18629C14.9963 7.18629 15.2483 7.43829 15.2483 7.74879V10.7698C15.2483 13.4653 13.5136 15.2765 10.9328 15.2765H4.31481C1.73406 15.2765 6.10352e-05 13.4653 6.10352e-05 10.7698V4.53429C6.10352e-05 1.83879 1.73406 0.0275441 4.31481 0.0275441H7.11906ZM13.6513 0.686494L14.564 1.59924C15.0088 2.04324 15.2533 2.63349 15.2525 3.26199C15.2525 3.89049 15.008 4.47999 14.564 4.92324L8.93226 10.555C8.51901 10.9682 7.96851 11.1962 7.38351 11.1962H4.57401C4.42251 11.1962 4.27701 11.1347 4.17126 11.026C4.06551 10.918 4.00776 10.7717 4.01151 10.6195L4.08201 7.78524C4.09626 7.22124 4.32351 6.69099 4.72251 6.29124L10.328 0.686494C11.2445 -0.228506 12.7348 -0.228506 13.6513 0.686494ZM9.86631 2.73849L5.51826 7.08699C5.32401 7.28124 5.21376 7.53924 5.20701 7.81299L5.15076 10.0712H7.38351C7.66851 10.0712 7.93551 9.96099 8.13726 9.75924L12.5116 5.38374L9.86631 2.73849ZM11.123 1.48224L10.6613 1.94274L13.3066 4.58874L13.769 4.12749C14 3.89649 14.1275 3.58899 14.1275 3.26199C14.1275 2.93424 14 2.62599 13.769 2.39499L12.8563 1.48224C12.3785 1.00599 11.6015 1.00599 11.123 1.48224Z" fill="black"/>
</svg>
