<svg width="14" height="15" viewBox="0 0 14 15" fill="none" xmlns="http://www.w3.org/2000/svg">
<path fill-rule="evenodd" clip-rule="evenodd" d="M8.98161 0.000244141C9.01382 0.000244141 9.04541 0.00295624 9.07614 0.0081644L9.17879 0.00879414C9.33179 0.00879414 9.47804 0.0710441 9.58454 0.181294L13.3833 4.13904C13.4838 4.24329 13.5401 4.38354 13.5401 4.52829V11.4028C13.5535 13.2845 12.088 14.822 10.2033 14.8985L4.18904 14.8993H4.10729C2.26983 14.8578 0.796159 13.3717 0.751264 11.5522L0.751038 3.36804C0.794538 1.50729 2.33129 0.00879414 4.17854 0.00879414L8.88708 0.0081644C8.91782 0.00295624 8.9494 0.000244141 8.98161 0.000244141ZM8.41904 1.13349L4.18004 1.13379C2.93729 1.13379 1.90529 2.14029 1.87604 3.38154V11.4028C1.84829 12.6875 2.86079 13.7458 4.13279 13.7743H10.1808C11.4325 13.7225 12.424 12.6823 12.4151 11.4073L12.415 5.23749L10.9076 5.23824C9.53511 5.23449 8.41911 4.11549 8.41911 2.74449L8.41904 1.13349ZM8.84151 9.45632C9.15201 9.45632 9.40401 9.70832 9.40401 10.0188C9.40401 10.3293 9.15201 10.5813 8.84151 10.5813H4.79151C4.48101 10.5813 4.22901 10.3293 4.22901 10.0188C4.22901 9.70832 4.48101 9.45632 4.79151 9.45632H8.84151ZM7.30784 6.64232C7.61834 6.64232 7.87034 6.89432 7.87034 7.20482C7.87034 7.51532 7.61834 7.76732 7.30784 7.76732H4.79084C4.48034 7.76732 4.22834 7.51532 4.22834 7.20482C4.22834 6.89432 4.48034 6.64232 4.79084 6.64232H7.30784ZM9.54404 1.76424L9.54411 2.74449C9.54411 3.49749 10.1569 4.11099 10.9091 4.11324L11.7985 4.11249L9.54404 1.76424Z" fill="black"/>
</svg>
