<svg width="15" height="16" viewBox="0 0 15 16" fill="none" xmlns="http://www.w3.org/2000/svg">
<path fill-rule="evenodd" clip-rule="evenodd" d="M3.1875 8.75C6.23925 8.75 6.375 9.785 6.375 11.9375C6.375 13.016 6.375 13.7832 5.922 14.345C5.40075 14.9922 4.452 15.125 3.1875 15.125C1.923 15.125 0.97425 14.9922 0.453 14.345C0 13.7832 0 13.0167 0 11.9562L0.5625 11.9375H0C0 9.785 0.13575 8.75 3.1875 8.75ZM11.4375 8.75C14.4893 8.75 14.625 9.785 14.625 11.9375C14.625 13.016 14.625 13.7832 14.172 14.345C13.6508 14.9922 12.702 15.125 11.4375 15.125C10.173 15.125 9.22425 14.9922 8.703 14.345C8.25 13.7832 8.25 13.0167 8.25 11.9562L8.8125 11.9375H8.25C8.25 9.785 8.38575 8.75 11.4375 8.75ZM3.34212 9.87533L3.1875 9.875C1.23077 9.875 1.13042 10.0154 1.12528 11.6578L1.12559 12.2976C1.12915 12.9509 1.15404 13.4227 1.32825 13.64C1.527 13.886 2.11725 14 3.1875 14C4.25775 14 4.848 13.8852 5.04675 13.6392C5.25 13.3865 5.25 12.7865 5.25 11.9555C5.25 10.0803 5.25 9.88416 3.34212 9.87533ZM11.5921 9.87533L11.4375 9.875C9.48077 9.875 9.38042 10.0154 9.37528 11.6578L9.37559 12.2976C9.37915 12.9509 9.40404 13.4227 9.57825 13.64C9.777 13.886 10.3673 14 11.4375 14C12.5077 14 13.098 13.8852 13.2968 13.6392C13.5 13.3865 13.5 12.7865 13.5 11.9555C13.5 10.0803 13.5 9.88416 11.5921 9.87533ZM3.1875 0.5C6.23925 0.5 6.375 1.535 6.375 3.6875C6.375 4.766 6.375 5.53325 5.922 6.095C5.40075 6.74225 4.452 6.875 3.1875 6.875C1.923 6.875 0.97425 6.74225 0.453 6.095C0 5.53325 0 4.76675 0 3.70625L0.5625 3.6875H0C0 1.535 0.13575 0.5 3.1875 0.5ZM11.4375 0.5C14.4893 0.5 14.625 1.535 14.625 3.6875C14.625 4.766 14.625 5.53325 14.172 6.095C13.6508 6.74225 12.702 6.875 11.4375 6.875C10.173 6.875 9.22425 6.74225 8.703 6.095C8.25 5.53325 8.25 4.76675 8.25 3.70625L8.8125 3.6875H8.25C8.25 1.535 8.38575 0.5 11.4375 0.5ZM3.34212 1.62533L3.1875 1.625C1.23077 1.625 1.13042 1.76541 1.12528 3.40779L1.12559 4.04764C1.12915 4.70086 1.15404 5.17271 1.32825 5.39C1.527 5.636 2.11725 5.75 3.1875 5.75C4.25775 5.75 4.848 5.63525 5.04675 5.38925C5.25 5.1365 5.25 4.5365 5.25 3.7055C5.25 1.83035 5.25 1.63416 3.34212 1.62533ZM11.5921 1.62533L11.4375 1.625C9.48077 1.625 9.38042 1.76541 9.37528 3.40779L9.37559 4.04764C9.37915 4.70086 9.40404 5.17271 9.57825 5.39C9.777 5.636 10.3673 5.75 11.4375 5.75C12.5077 5.75 13.098 5.63525 13.2968 5.38925C13.5 5.1365 13.5 4.5365 13.5 3.7055C13.5 1.83035 13.5 1.63416 11.5921 1.62533Z" fill="black"/>
</svg>
